<?xml version="1.0" encoding="UTF-8" standalone="no"?>
<svg
   xmlns:dc="http://purl.org/dc/elements/1.1/"
   xmlns:cc="http://creativecommons.org/ns#"
   xmlns:rdf="http://www.w3.org/1999/02/22-rdf-syntax-ns#"
   xmlns:svg="http://www.w3.org/2000/svg"
   xmlns="http://www.w3.org/2000/svg"
   xmlns:xlink="http://www.w3.org/1999/xlink"
   viewBox="0 0 545.42322 459.5459"
   height="459.5459"
   width="545.42322"
   xml:space="preserve"
   version="1.1"
   id="svg2"><metadata
     id="metadata8"><rdf:RDF><cc:Work
         rdf:about=""><dc:format>image/svg+xml</dc:format><dc:type
           rdf:resource="http://purl.org/dc/dcmitype/StillImage" /><dc:title></dc:title></cc:Work></rdf:RDF></metadata><defs
     id="defs6"><linearGradient
       id="linearGradient4465"><stop
         id="stop4467"
         offset="0"
         style="stop-color:#1535c6;stop-opacity:1" /><stop
         id="stop4469"
         offset="1"
         style="stop-color:#0004ff;stop-opacity:0.99421966" /></linearGradient><linearGradient
       id="linearGradient4776"><stop
         id="stop4778"
         offset="0"
         style="stop-color:#000000;stop-opacity:1" /><stop
         id="stop4780"
         offset="1"
         style="stop-color:#000000;stop-opacity:0;" /></linearGradient><clipPath
       id="clipPath28"
       clipPathUnits="userSpaceOnUse"><path
         style="clip-rule:evenodd"
         id="path30"
         d="M 0,0 612,0 612,792 0,792 0,0 Z" /></clipPath><clipPath
       id="clipPath46"
       clipPathUnits="userSpaceOnUse"><path
         style="clip-rule:evenodd"
         id="path48"
         d="M 0,0 612,0 612,792 0,792 0,0 Z" /></clipPath><clipPath
       id="clipPath52"
       clipPathUnits="userSpaceOnUse"><path
         style="clip-rule:evenodd"
         id="path54"
         d="M 0,0 612,0 612,792 0,792 0,0 Z" /></clipPath><clipPath
       id="clipPath66"
       clipPathUnits="userSpaceOnUse"><path
         style="clip-rule:evenodd"
         id="path68"
         d="M 0,0 612,0 612,792 0,792 0,0 Z" /></clipPath><clipPath
       id="clipPath78"
       clipPathUnits="userSpaceOnUse"><path
         style="clip-rule:evenodd"
         id="path80"
         d="M 0,0 612,0 612,792 0,792 0,0 Z" /></clipPath><clipPath
       id="clipPath84"
       clipPathUnits="userSpaceOnUse"><path
         style="clip-rule:evenodd"
         id="path86"
         d="M 0,0 612,0 612,792 0,792 0,0 Z" /></clipPath><clipPath
       id="clipPath98"
       clipPathUnits="userSpaceOnUse"><path
         style="clip-rule:evenodd"
         id="path100"
         d="M 0,0 612,0 612,792 0,792 0,0 Z" /></clipPath><clipPath
       id="clipPath110"
       clipPathUnits="userSpaceOnUse"><path
         style="clip-rule:evenodd"
         id="path112"
         d="M 0,0 612,0 612,792 0,792 0,0 Z" /></clipPath><clipPath
       id="clipPath116"
       clipPathUnits="userSpaceOnUse"><path
         style="clip-rule:evenodd"
         id="path118"
         d="M 0,0 612,0 612,792 0,792 0,0 Z" /></clipPath><clipPath
       id="clipPath130"
       clipPathUnits="userSpaceOnUse"><path
         style="clip-rule:evenodd"
         id="path132"
         d="M 0,0 612,0 612,792 0,792 0,0 Z" /></clipPath><clipPath
       id="clipPath142"
       clipPathUnits="userSpaceOnUse"><path
         style="clip-rule:evenodd"
         id="path144"
         d="M 0,0 612,0 612,792 0,792 0,0 Z" /></clipPath><clipPath
       id="clipPath148"
       clipPathUnits="userSpaceOnUse"><path
         style="clip-rule:evenodd"
         id="path150"
         d="M 0,0 612,0 612,792 0,792 0,0 Z" /></clipPath><clipPath
       id="clipPath162"
       clipPathUnits="userSpaceOnUse"><path
         style="clip-rule:evenodd"
         id="path164"
         d="M 0,0 612,0 612,792 0,792 0,0 Z" /></clipPath><clipPath
       id="clipPath174"
       clipPathUnits="userSpaceOnUse"><path
         style="clip-rule:evenodd"
         id="path176"
         d="M 0,0 612,0 612,792 0,792 0,0 Z" /></clipPath><clipPath
       id="clipPath180"
       clipPathUnits="userSpaceOnUse"><path
         style="clip-rule:evenodd"
         id="path182"
         d="M 0,0 612,0 612,792 0,792 0,0 Z" /></clipPath><clipPath
       id="clipPath192"
       clipPathUnits="userSpaceOnUse"><path
         style="clip-rule:evenodd"
         id="path194"
         d="M 0,0 612,0 612,792 0,792 0,0 Z" /></clipPath><clipPath
       id="clipPath198"
       clipPathUnits="userSpaceOnUse"><path
         style="clip-rule:evenodd"
         id="path200"
         d="M 0,0 612,0 612,792 0,792 0,0 Z" /></clipPath><clipPath
       id="clipPath204"
       clipPathUnits="userSpaceOnUse"><path
         style="clip-rule:evenodd"
         id="path206"
         d="M 40.099191,198.12414 441.56565,233.2479 408.88225,606.82091 7.4157879,571.69715 40.099191,198.12414 Z" /></clipPath><clipPath
       id="clipPath216"
       clipPathUnits="userSpaceOnUse"><path
         style="clip-rule:evenodd"
         id="path218"
         d="M 0,0 612,0 612,792 0,792 0,0 Z" /></clipPath><clipPath
       id="clipPath222"
       clipPathUnits="userSpaceOnUse"><path
         style="clip-rule:evenodd"
         id="path224"
         d="M 0,0 612,0 612,792 0,792 0,0 Z" /></clipPath><clipPath
       id="clipPath228"
       clipPathUnits="userSpaceOnUse"><path
         style="clip-rule:evenodd"
         id="path230"
         d="M 40.099191,198.12414 441.56565,233.2479 408.88225,606.82091 7.4157879,571.69715 40.099191,198.12414 Z" /></clipPath><clipPath
       id="clipPath234"
       clipPathUnits="userSpaceOnUse"><path
         style="clip-rule:evenodd"
         id="path236"
         d="M 41.019928,198.38537 441.23118,233.39932 408.60007,606.3746 8.3888184,571.36066 41.019928,198.38537 Z" /></clipPath><clipPath
       id="clipPath244"
       clipPathUnits="userSpaceOnUse"><path
         style="clip-rule:evenodd"
         id="path246"
         d="M 0,0 612,0 612,792 0,792 0,0 Z" /></clipPath><clipPath
       id="clipPath250"
       clipPathUnits="userSpaceOnUse"><path
         style="clip-rule:evenodd"
         id="path252"
         d="M 0,0 612,0 612,792 0,792 0,0 Z" /></clipPath><clipPath
       id="clipPath256"
       clipPathUnits="userSpaceOnUse"><path
         style="clip-rule:evenodd"
         id="path258"
         d="M 40.099191,198.12414 441.56565,233.2479 408.88225,606.82091 7.4157879,571.69715 40.099191,198.12414 Z" /></clipPath><clipPath
       id="clipPath262"
       clipPathUnits="userSpaceOnUse"><path
         style="clip-rule:evenodd"
         id="path264"
         d="M 41.019928,198.38537 441.23118,233.39932 408.60007,606.3746 8.3888184,571.36066 41.019928,198.38537 Z" /></clipPath><clipPath
       id="clipPath268"
       clipPathUnits="userSpaceOnUse"><path
         style="clip-rule:evenodd"
         id="path270"
         d="M 41.019928,198.38537 441.23118,233.39932 408.60007,606.3746 8.3888184,571.36066 41.019928,198.38537 Z" /></clipPath><clipPath
       id="clipPath290"
       clipPathUnits="userSpaceOnUse"><path
         style="clip-rule:evenodd"
         id="path292"
         d="M 0,0 612,0 612,792 0,792 0,0 Z" /></clipPath><clipPath
       id="clipPath300"
       clipPathUnits="userSpaceOnUse"><path
         style="clip-rule:evenodd"
         id="path302"
         d="M 0,0 612,0 612,792 0,792 0,0 Z" /></clipPath><clipPath
       id="clipPath306"
       clipPathUnits="userSpaceOnUse"><path
         style="clip-rule:evenodd"
         id="path308"
         d="M 0,0 612,0 612,792 0,792 0,0 Z" /></clipPath><clipPath
       id="clipPath316"
       clipPathUnits="userSpaceOnUse"><path
         style="clip-rule:evenodd"
         id="path318"
         d="M 0,0 612,0 612,792 0,792 0,0 Z" /></clipPath><clipPath
       id="clipPath322"
       clipPathUnits="userSpaceOnUse"><path
         style="clip-rule:evenodd"
         id="path324"
         d="M 0,0 612,0 612,792 0,792 0,0 Z" /></clipPath><clipPath
       id="clipPath328"
       clipPathUnits="userSpaceOnUse"><path
         style="clip-rule:evenodd"
         id="path330"
         d="M 40.099191,198.12414 441.56565,233.2479 408.88225,606.82091 7.4157879,571.69715 40.099191,198.12414 Z" /></clipPath><clipPath
       id="clipPath338"
       clipPathUnits="userSpaceOnUse"><path
         style="clip-rule:evenodd"
         id="path340"
         d="M 0,0 612,0 612,792 0,792 0,0 Z" /></clipPath><clipPath
       id="clipPath344"
       clipPathUnits="userSpaceOnUse"><path
         style="clip-rule:evenodd"
         id="path346"
         d="M 0,0 612,0 612,792 0,792 0,0 Z" /></clipPath><clipPath
       id="clipPath350"
       clipPathUnits="userSpaceOnUse"><path
         style="clip-rule:evenodd"
         id="path352"
         d="M 40.099191,198.12414 441.56565,233.2479 408.88225,606.82091 7.4157879,571.69715 40.099191,198.12414 Z" /></clipPath><clipPath
       id="clipPath356"
       clipPathUnits="userSpaceOnUse"><path
         style="clip-rule:evenodd"
         id="path358"
         d="M 41.019928,198.38537 441.23118,233.39932 408.60007,606.3746 8.3888184,571.36066 41.019928,198.38537 Z" /></clipPath><clipPath
       id="clipPath368"
       clipPathUnits="userSpaceOnUse"><path
         style="clip-rule:evenodd"
         id="path370"
         d="M 0,0 612,0 612,792 0,792 0,0 Z" /></clipPath><clipPath
       id="clipPath374"
       clipPathUnits="userSpaceOnUse"><path
         style="clip-rule:evenodd"
         id="path376"
         d="M 0,0 612,0 612,792 0,792 0,0 Z" /></clipPath><clipPath
       id="clipPath380"
       clipPathUnits="userSpaceOnUse"><path
         style="clip-rule:evenodd"
         id="path382"
         d="M 40.099191,198.12414 441.56565,233.2479 408.88225,606.82091 7.4157879,571.69715 40.099191,198.12414 Z" /></clipPath><clipPath
       id="clipPath386"
       clipPathUnits="userSpaceOnUse"><path
         style="clip-rule:evenodd"
         id="path388"
         d="M 41.019928,198.38537 441.23118,233.39932 408.60007,606.3746 8.3888184,571.36066 41.019928,198.38537 Z" /></clipPath><clipPath
       id="clipPath392"
       clipPathUnits="userSpaceOnUse"><path
         style="clip-rule:evenodd"
         id="path394"
         d="M 41.019928,198.38537 441.23118,233.39932 408.60007,606.3746 8.3888184,571.36066 41.019928,198.38537 Z" /></clipPath><clipPath
       id="clipPath408"
       clipPathUnits="userSpaceOnUse"><path
         style="clip-rule:evenodd"
         id="path410"
         d="M 0,0 612,0 612,792 0,792 0,0 Z" /></clipPath><clipPath
       id="clipPath418"
       clipPathUnits="userSpaceOnUse"><path
         style="clip-rule:evenodd"
         id="path420"
         d="M 0,0 612,0 612,792 0,792 0,0 Z" /></clipPath><clipPath
       id="clipPath424"
       clipPathUnits="userSpaceOnUse"><path
         style="clip-rule:evenodd"
         id="path426"
         d="M 0,0 612,0 612,792 0,792 0,0 Z" /></clipPath><clipPath
       id="clipPath434"
       clipPathUnits="userSpaceOnUse"><path
         style="clip-rule:evenodd"
         id="path436"
         d="M 0,0 612,0 612,792 0,792 0,0 Z" /></clipPath><clipPath
       id="clipPath440"
       clipPathUnits="userSpaceOnUse"><path
         style="clip-rule:evenodd"
         id="path442"
         d="M 0,0 612,0 612,792 0,792 0,0 Z" /></clipPath><clipPath
       id="clipPath446"
       clipPathUnits="userSpaceOnUse"><path
         style="clip-rule:evenodd"
         id="path448"
         d="M 40.099191,198.12414 441.56565,233.2479 408.88225,606.82091 7.4157879,571.69715 40.099191,198.12414 Z" /></clipPath><clipPath
       id="clipPath456"
       clipPathUnits="userSpaceOnUse"><path
         style="clip-rule:evenodd"
         id="path458"
         d="M 0,0 612,0 612,792 0,792 0,0 Z" /></clipPath><clipPath
       id="clipPath462"
       clipPathUnits="userSpaceOnUse"><path
         style="clip-rule:evenodd"
         id="path464"
         d="M 0,0 612,0 612,792 0,792 0,0 Z" /></clipPath><clipPath
       id="clipPath468"
       clipPathUnits="userSpaceOnUse"><path
         style="clip-rule:evenodd"
         id="path470"
         d="M 40.099191,198.12414 441.56565,233.2479 408.88225,606.82091 7.4157879,571.69715 40.099191,198.12414 Z" /></clipPath><clipPath
       id="clipPath474"
       clipPathUnits="userSpaceOnUse"><path
         style="clip-rule:evenodd"
         id="path476"
         d="M 41.019928,198.38537 441.23118,233.39932 408.60007,606.3746 8.3888184,571.36066 41.019928,198.38537 Z" /></clipPath><clipPath
       id="clipPath490"
       clipPathUnits="userSpaceOnUse"><path
         style="clip-rule:evenodd"
         id="path492"
         d="M 0,0 612,0 612,792 0,792 0,0 Z" /></clipPath><clipPath
       id="clipPath500"
       clipPathUnits="userSpaceOnUse"><path
         style="clip-rule:evenodd"
         id="path502"
         d="M 0,0 612,0 612,792 0,792 0,0 Z" /></clipPath><clipPath
       id="clipPath506"
       clipPathUnits="userSpaceOnUse"><path
         style="clip-rule:evenodd"
         id="path508"
         d="M 0,0 612,0 612,792 0,792 0,0 Z" /></clipPath><clipPath
       id="clipPath516"
       clipPathUnits="userSpaceOnUse"><path
         style="clip-rule:evenodd"
         id="path518"
         d="M 0,0 612,0 612,792 0,792 0,0 Z" /></clipPath><clipPath
       id="clipPath522"
       clipPathUnits="userSpaceOnUse"><path
         style="clip-rule:evenodd"
         id="path524"
         d="M 0,0 612,0 612,792 0,792 0,0 Z" /></clipPath><clipPath
       id="clipPath528"
       clipPathUnits="userSpaceOnUse"><path
         style="clip-rule:evenodd"
         id="path530"
         d="M 40.099191,198.12414 441.56565,233.2479 408.88225,606.82091 7.4157879,571.69715 40.099191,198.12414 Z" /></clipPath><clipPath
       id="clipPath544"
       clipPathUnits="userSpaceOnUse"><path
         style="clip-rule:evenodd"
         id="path546"
         d="M 0,0 612,0 612,792 0,792 0,0 Z" /></clipPath><clipPath
       id="clipPath554"
       clipPathUnits="userSpaceOnUse"><path
         style="clip-rule:evenodd"
         id="path556"
         d="M 0,0 612,0 612,792 0,792 0,0 Z" /></clipPath><clipPath
       id="clipPath560"
       clipPathUnits="userSpaceOnUse"><path
         style="clip-rule:evenodd"
         id="path562"
         d="M 0,0 612,0 612,792 0,792 0,0 Z" /></clipPath><clipPath
       id="clipPath606"
       clipPathUnits="userSpaceOnUse"><path
         style="clip-rule:evenodd"
         id="path608"
         d="M 0,0 612,0 612,792 0,792 0,0 Z" /></clipPath><clipPath
       id="clipPath618"
       clipPathUnits="userSpaceOnUse"><path
         style="clip-rule:evenodd"
         id="path620"
         d="M 0,0 612,0 612,792 0,792 0,0 Z" /></clipPath><clipPath
       id="clipPath624"
       clipPathUnits="userSpaceOnUse"><path
         style="clip-rule:evenodd"
         id="path626"
         d="M 0,0 612,0 612,792 0,792 0,0 Z" /></clipPath><clipPath
       id="clipPath638"
       clipPathUnits="userSpaceOnUse"><path
         style="clip-rule:evenodd"
         id="path640"
         d="M 0,0 612,0 612,792 0,792 0,0 Z" /></clipPath><linearGradient
       gradientUnits="userSpaceOnUse"
       y2="654.21338"
       x2="1403.7887"
       y1="402.38959"
       x1="41.203472"
       id="linearGradient4782"
       xlink:href="#linearGradient4776" /><linearGradient
       gradientUnits="userSpaceOnUse"
       y2="298.73975"
       x2="577.46008"
       y1="401.28375"
       x1="179.1758"
       id="linearGradient4471"
       xlink:href="#linearGradient4465" /><linearGradient
       y2="654.21338"
       x2="1403.7887"
       y1="402.38959"
       x1="41.203472"
       gradientUnits="userSpaceOnUse"
       id="linearGradient4461"
       xlink:href="#linearGradient4776" /><linearGradient
       y2="654.21338"
       x2="1403.7887"
       y1="402.38959"
       x1="41.203472"
       gradientUnits="userSpaceOnUse"
       id="linearGradient4463"
       xlink:href="#linearGradient4776" /><linearGradient
       gradientTransform="matrix(1.25,0,0,1.25,-51.50434,-273.21402)"
       y2="654.21338"
       x2="1403.7887"
       y1="402.38959"
       x1="41.203472"
       gradientUnits="userSpaceOnUse"
       id="linearGradient4466"
       xlink:href="#linearGradient4776" /><linearGradient
       y2="654.21338"
       x2="1403.7887"
       y1="402.38959"
       x1="41.203472"
       gradientUnits="userSpaceOnUse"
       id="linearGradient4468"
       xlink:href="#linearGradient4776" /><linearGradient
       y2="654.21338"
       x2="1403.7887"
       y1="402.38959"
       x1="41.203472"
       gradientUnits="userSpaceOnUse"
       id="linearGradient4470"
       xlink:href="#linearGradient4776" /><linearGradient
       y2="654.21338"
       x2="1403.7887"
       y1="402.38959"
       x1="41.203472"
       gradientUnits="userSpaceOnUse"
       id="linearGradient4472"
       xlink:href="#linearGradient4776" /><linearGradient
       y2="654.21338"
       x2="1403.7887"
       y1="402.38959"
       x1="41.203472"
       gradientUnits="userSpaceOnUse"
       id="linearGradient4474"
       xlink:href="#linearGradient4776" /><linearGradient
       y2="654.21338"
       x2="1403.7887"
       y1="402.38959"
       x1="41.203472"
       gradientUnits="userSpaceOnUse"
       id="linearGradient4476"
       xlink:href="#linearGradient4776" /><linearGradient
       y2="654.21338"
       x2="1403.7887"
       y1="402.38959"
       x1="41.203472"
       gradientUnits="userSpaceOnUse"
       id="linearGradient4478"
       xlink:href="#linearGradient4776" /><linearGradient
       y2="654.21338"
       x2="1403.7887"
       y1="402.38959"
       x1="41.203472"
       gradientUnits="userSpaceOnUse"
       id="linearGradient4480"
       xlink:href="#linearGradient4776" /></defs><g
     transform="matrix(1.25,0,0,-1.25,-51.50434,716.78598)"
     id="g10"><g
       transform="matrix(1,0,0,-1,0,792)"
       id="g12"><g
         id="g14"><g
           id="g16" /></g><g
         id="g18"><g
           id="g20" /><g
           id="g22" /></g><g
         id="g42"><g
           clip-path="url(#clipPath46)"
           id="g44"><g
             clip-path="url(#clipPath52)"
             id="g50"><g
               id="g56" /></g></g></g><g
         id="g58"><g
           id="g60" /></g><g
         id="g62"><g
           clip-path="url(#clipPath66)"
           id="g64"><g
             id="g70" /><g
             id="g72" /></g></g><g
         id="g74"><g
           clip-path="url(#clipPath78)"
           id="g76"><g
             clip-path="url(#clipPath84)"
             id="g82"><g
               id="g88" /></g></g></g><g
         id="g90"><g
           id="g92" /></g><g
         id="g94"><g
           clip-path="url(#clipPath98)"
           id="g96"><g
             id="g102" /><g
             id="g104" /></g></g><g
         id="g106"><g
           clip-path="url(#clipPath110)"
           id="g108"><g
             clip-path="url(#clipPath116)"
             id="g114"><g
               id="g120" /></g></g></g><g
         id="g122"><g
           id="g124" /></g><g
         id="g126"><g
           clip-path="url(#clipPath130)"
           id="g128"><g
             id="g134" /><g
             id="g136" /></g></g><g
         id="g138"><g
           clip-path="url(#clipPath142)"
           id="g140"><g
             clip-path="url(#clipPath148)"
             id="g146"><g
               id="g152" /></g></g></g><g
         id="g154"><g
           id="g156" /></g><g
         id="g158"><g
           clip-path="url(#clipPath162)"
           id="g160"><g
             id="g166" /><g
             id="g168" /></g></g><g
         id="g170"><g
           clip-path="url(#clipPath174)"
           id="g172"><g
             clip-path="url(#clipPath180)"
             id="g178"><g
               id="g184" /><g
               transform="matrix(0.9961947,0.08715574,-0.08715574,0.9961947,35.925198,-18.062305)"
               id="g186" /></g></g></g><g
         id="g188"><g
           clip-path="url(#clipPath192)"
           id="g190"><g
             clip-path="url(#clipPath198)"
             id="g196"><g
               clip-path="url(#clipPath204)"
               id="g202"><g
                 transform="matrix(0.9961947,0.08715574,-0.08715574,0.9961947,35.925198,-18.062305)"
                 id="g208" /><g
                 transform="matrix(0.99308003,0.08688324,-0.08701629,0.99460076,41.019928,198.38537)"
                 id="g210" /></g></g></g></g><g
         id="g212"><g
           clip-path="url(#clipPath216)"
           id="g214"><g
             clip-path="url(#clipPath222)"
             id="g220"><g
               clip-path="url(#clipPath228)"
               id="g226"><g
                 clip-path="url(#clipPath234)"
                 id="g232"><g
                   transform="matrix(0.99308003,0.08688324,-0.08701629,0.99460076,41.019928,198.38537)"
                   id="g238" /></g></g></g></g></g><g
         style="fill:url(#linearGradient4782);fill-opacity:1"
         id="g240"><g
           style="fill:url(#linearGradient4480);fill-opacity:1"
           clip-path="url(#clipPath244)"
           id="g242"><g
             style="fill:url(#linearGradient4478);fill-opacity:1"
             clip-path="url(#clipPath250)"
             id="g248"><g
               style="fill:url(#linearGradient4476);fill-opacity:1"
               clip-path="url(#clipPath256)"
               id="g254"><g
                 style="fill:url(#linearGradient4474);fill-opacity:1"
                 clip-path="url(#clipPath262)"
                 id="g260"><g
                   style="fill:url(#linearGradient4472);fill-opacity:1"
                   clip-path="url(#clipPath268)"
                   id="g266"><g
                     style="fill:url(#linearGradient4461);fill-opacity:1"
                     transform="matrix(0.99308003,0.08688324,-0.08701629,0.99460076,41.019928,198.38537)"
                     id="g272" /><g
                     style="fill:url(#linearGradient4463);fill-opacity:1"
                     transform="matrix(0.37240501,0.03258122,-0.03263111,0.37297528,54.923048,199.60174)"
                     id="g274" /><g
                     style="fill:url(#linearGradient4468);fill-opacity:1"
                     id="g276"><path
                       id="path278"
                       transform="matrix(0.8,0,0,0.8,41.203472,218.57122)"
                       d="M 228.71875 0.0078125 C 219.56817 0.11745312 210.19059 1.5387563 200.59375 4.2695312 L 196.85352 41.666016 C 190.51543 42.802741 184.25015 44.182125 178.0918 45.945312 C 172.225 47.59305 166.52267 49.488972 160.84375 51.669922 L 139.0957 20.921875 C 121.50177 25.25495 105.76449 34.636512 91.845703 48.96875 L 107.28516 83.205078 C 97.821506 91.115166 89.021119 100.02348 81.074219 109.89844 L 46.941406 94.179688 C 33.875883 106.80138 24.880874 122.73921 19.994141 142.13672 L 50.443359 164.0625 C 46.069594 175.98828 42.943863 188.11645 41.033203 200.30469 L 3.625 203.79688 C -1.4162737 221.20774 -1.1923581 239.5503 4.2558594 258.77148 L 41.591797 262.55469 C 42.682654 268.85132 44.102617 275.12995 45.857422 281.34375 C 47.509283 287.12571 49.393985 292.92808 51.574219 298.56836 L 20.871094 320.31055 C 25.192971 337.92985 34.552417 353.73396 48.859375 367.66992 L 83.050781 352.15234 C 90.942356 361.67479 99.835203 370.48685 109.69727 378.39648 L 93.994141 412.58594 C 106.5468 425.66374 122.50408 434.66966 141.87109 439.55859 L 163.72461 409.05469 C 175.63127 413.43186 187.78764 416.56237 199.95703 418.47266 L 203.43555 455.9375 C 220.86948 460.93921 239.17935 460.75646 258.37305 455.29492 L 262.11719 417.85156 C 268.45117 416.76145 274.67009 415.37825 280.875 413.61914 C 286.73774 412.01802 292.44217 410.07548 298.12109 407.89453 L 319.86914 438.64258 C 337.41652 434.30543 353.24282 424.97864 367.11914 410.5957 L 352.05859 377.25391 L 289.97852 340.4668 C 281.55063 345.0721 272.64273 348.6942 263.43945 351.25781 C 232.37659 359.956 198.03157 356.85713 167.72656 339.73633 C 137.3709 322.65807 116.86255 294.88305 108.18164 263.82227 C 99.508866 232.66825 102.65831 198.27341 119.71484 167.91406 C 136.77137 137.55473 164.51296 116.96398 195.5293 108.26172 C 225.31855 99.920154 258.12232 102.47794 287.53516 117.76367 L 349.34961 81.134766 C 349.32544 81.115236 349.30153 81.095692 349.27734 81.076172 L 364.92578 46.974609 C 352.32657 33.892734 336.36731 24.886828 317.04688 20.001953 L 295.14648 50.501953 C 283.28635 46.128841 271.17689 43.002266 258.96094 41.087891 L 255.48438 3.6230469 C 246.79272 1.1009219 237.86933 -0.10182812 228.71875 0.0078125 z "
                       style="fill:url(#linearGradient4466);fill-opacity:1;fill-rule:nonzero;stroke:none" /></g><g
                     style="fill:url(#linearGradient4470);fill-opacity:1"
                     transform="matrix(0.37240501,0.03258122,-0.03263111,0.37297528,54.923048,199.60174)"
                     id="g280" /></g></g></g></g></g></g><g
         id="g282"><g
           transform="matrix(0.37240501,0.03258122,-0.03263111,0.37297528,54.923048,199.60174)"
           id="g284" /></g><g
         id="g286"><g
           clip-path="url(#clipPath290)"
           id="g288"><g
             id="g294" /></g></g><g
         id="g296"><g
           clip-path="url(#clipPath300)"
           id="g298"><g
             clip-path="url(#clipPath306)"
             id="g304"><g
               id="g310" /></g></g></g><g
         id="g312"><g
           clip-path="url(#clipPath316)"
           id="g314"><g
             clip-path="url(#clipPath322)"
             id="g320"><g
               clip-path="url(#clipPath328)"
               id="g326"><g
                 transform="matrix(0.9961947,0.08715574,-0.08715574,0.9961947,35.925198,-18.062305)"
                 id="g332" /></g></g></g></g><g
         id="g334"><g
           clip-path="url(#clipPath338)"
           id="g336"><g
             clip-path="url(#clipPath344)"
             id="g342"><g
               clip-path="url(#clipPath350)"
               id="g348"><g
                 clip-path="url(#clipPath356)"
                 id="g354"><g
                   transform="matrix(0.99308003,0.08688324,-0.08701629,0.99460076,41.019928,198.38537)"
                   id="g360" /><g
                   transform="matrix(0.99308003,0.08688324,-0.08701629,0.99460076,41.019928,198.38537)"
                   id="g362" /></g></g></g></g></g><g
         id="g364"><g
           clip-path="url(#clipPath368)"
           id="g366"><g
             clip-path="url(#clipPath374)"
             id="g372"><g
               clip-path="url(#clipPath380)"
               id="g378"><g
                 clip-path="url(#clipPath386)"
                 id="g384"><g
                   clip-path="url(#clipPath392)"
                   id="g390"><g
                     transform="matrix(0.99308003,0.08688324,-0.08701629,0.99460076,41.019928,198.38537)"
                     id="g396" /><g
                     transform="matrix(0.37240501,0.03258122,-0.03263111,0.37297528,54.923048,199.60174)"
                     id="g398" /></g></g></g></g></g></g><g
         id="g400"><g
           transform="matrix(0.37240501,0.03258122,-0.03263111,0.37297528,54.923048,199.60174)"
           id="g402" /></g><g
         id="g404"><g
           clip-path="url(#clipPath408)"
           id="g406"><g
             id="g412" /></g></g><g
         id="g414"><g
           clip-path="url(#clipPath418)"
           id="g416"><g
             clip-path="url(#clipPath424)"
             id="g422"><g
               id="g428" /></g></g></g><g
         id="g430"><g
           clip-path="url(#clipPath434)"
           id="g432"><g
             clip-path="url(#clipPath440)"
             id="g438"><g
               clip-path="url(#clipPath446)"
               id="g444"><g
                 transform="matrix(0.9961947,0.08715574,-0.08715574,0.9961947,35.925198,-18.062305)"
                 id="g450" /></g></g></g></g><g
         id="g452"><g
           clip-path="url(#clipPath456)"
           id="g454"><g
             clip-path="url(#clipPath462)"
             id="g460"><g
               clip-path="url(#clipPath468)"
               id="g466"><g
                 clip-path="url(#clipPath474)"
                 id="g472"><g
                   transform="matrix(0.99308003,0.08688324,-0.08701629,0.99460076,41.019928,198.38537)"
                   id="g478" /><g
                   transform="matrix(0.99308003,0.08688324,-0.08701629,0.99460076,41.019928,198.38537)"
                   id="g480" /></g></g></g></g></g><g
         id="g482"><g
           transform="matrix(0.99308003,0.08688324,-0.08701629,0.99460076,41.019928,198.38537)"
           id="g484" /></g><g
         id="g486"><g
           clip-path="url(#clipPath490)"
           id="g488"><g
             id="g494" /></g></g><g
         id="g496"><g
           clip-path="url(#clipPath500)"
           id="g498"><g
             clip-path="url(#clipPath506)"
             id="g504"><g
               id="g510" /></g></g></g><g
         id="g512"><g
           clip-path="url(#clipPath516)"
           id="g514"><g
             clip-path="url(#clipPath522)"
             id="g520"><g
               clip-path="url(#clipPath528)"
               id="g526"><g
                 transform="matrix(0.9961947,0.08715574,-0.08715574,0.9961947,35.925198,-18.062305)"
                 id="g532" /><g
                 transform="matrix(0.99308003,0.08688324,-0.08701629,0.99460076,41.019928,198.38537)"
                 id="g534" /></g></g></g></g><g
         id="g536"><g
           transform="matrix(0.99308003,0.08688324,-0.08701629,0.99460076,41.019928,198.38537)"
           id="g538" /></g><g
         id="g540"><g
           clip-path="url(#clipPath544)"
           id="g542"><g
             id="g548" /></g></g><g
         transform="matrix(0.98111891,0,0,1,3.1704631,-1.6)"
         id="g550"><g
           clip-path="url(#clipPath554)"
           id="g552"><g
             clip-path="url(#clipPath560)"
             id="g558"><g
               id="g564" /><g
               transform="matrix(0.9961947,0.08715574,-0.08715574,0.9961947,35.925198,-18.062305)"
               id="g566" /><g
               id="g568" /><g
               transform="translate(0.5,0.5)"
               id="g570" /><g
               id="g572" /><g
               transform="translate(0.5,0.5)"
               id="g576" /><g
               id="g578" /><g
               transform="translate(0.5,0.5)"
               id="g580" /><g
               id="g582" /><g
               transform="matrix(0.71999997,0,0,0.71999997,169,322)"
               id="g584"><g
                 id="g586" /></g><g
               id="g588" /><g
               transform="matrix(0.71999997,0,0,0.71999997,169,322)"
               id="g592"><g
                 id="g594" /></g><g
               id="g596" /></g></g></g><g
         id="g598"><g
           id="g600" /></g><g
         id="g602"><g
           clip-path="url(#clipPath606)"
           id="g604"><g
             id="g610" /><g
             id="g612" /></g></g><g
         id="g614"><g
           clip-path="url(#clipPath618)"
           id="g616"><g
             clip-path="url(#clipPath624)"
             id="g622"><g
               id="g628" /></g></g></g><g
         id="g630"><g
           id="g632" /></g><g
         id="g634"><g
           clip-path="url(#clipPath638)"
           id="g636"><g
             id="g642" /><g
             id="g644" /></g></g><g
         id="g646"><g
           id="g648" /></g><g
         id="text4838"
         style="font-style:normal;font-variant:normal;font-weight:normal;font-stretch:normal;font-size:151.52076721px;line-height:125%;font-family:'Barloesius Schrift';-inkscape-font-specification:'Barloesius Schrift, Normal';text-align:start;letter-spacing:0px;word-spacing:0px;writing-mode:lr-tb;text-anchor:start;fill:url(#linearGradient4471);fill-opacity:1;stroke:none;stroke-width:1px;stroke-linecap:butt;stroke-linejoin:miter;stroke-opacity:1"><g
           id="g4495"><path
             d="m 191.29746,429.39086 0,-78.18471 -12.12166,0 0,78.18471 c 0,14.39447 11.97014,24.54637 27.57678,24.54637 l 0,-12.12167 c -8.78821,0 -15.45512,-5.45474 -15.45512,-12.4247 z"
             style="font-style:normal;font-variant:normal;font-weight:bold;font-stretch:normal;font-size:151.52076721px;line-height:125%;font-family:'Zag Bold';-inkscape-font-specification:'Zag Bold, Bold';text-align:start;letter-spacing:0.02559122px;writing-mode:lr-tb;text-anchor:start;fill:url(#linearGradient4471);fill-opacity:1"
             id="path4485" /><path
             d="m 238.05537,454.69483 c 13.78839,0 23.63724,-11.06102 23.63724,-23.94028 l 0,-49.69881 -12.12166,0 0,49.69881 c 0,6.36387 -5.15171,11.6671 -11.51558,11.6671 -6.21235,0 -11.36406,-5.30323 -11.36406,-11.6671 l 0,-49.69881 -12.27318,0 0,49.69881 c 0,12.87926 10.30341,23.94028 23.63724,23.94028 z"
             style="font-style:normal;font-variant:normal;font-weight:bold;font-stretch:normal;font-size:151.52076721px;line-height:125%;font-family:'Zag Bold';-inkscape-font-specification:'Zag Bold, Bold';text-align:start;letter-spacing:0.02559122px;writing-mode:lr-tb;text-anchor:start;fill:url(#linearGradient4471);fill-opacity:1"
             id="path4487" /><path
             d="m 300.24235,454.84635 c 16.51577,0 24.09181,-9.54581 24.09181,-22.12203 l 0,-28.94047 c 0,-12.27318 -10.9095,-24.39484 -24.39485,-23.3342 -4.09106,0.30304 -8.93972,2.12129 -11.6671,7.12148 l 0,-36.97107 -12.27318,0 0,103.33717 9.24277,0 2.42433,-7.57604 c 2.72737,6.21235 8.0306,8.48516 12.57622,8.48516 z m 11.81862,-22.12203 c 0,6.06083 -5.45474,10.00037 -12.12166,10.00037 -6.51539,0 -11.6671,-5.45475 -11.6671,-10.75798 l 0,-28.78894 c 0.15152,-6.06083 4.09106,-10.45493 11.6671,-10.45493 6.5154,0 12.12166,4.84866 12.12166,11.06101 l 0,28.94047 z"
             style="font-style:normal;font-variant:normal;font-weight:bold;font-stretch:normal;font-size:151.52076721px;line-height:125%;font-family:'Zag Bold';-inkscape-font-specification:'Zag Bold, Bold';text-align:start;letter-spacing:0.02559122px;writing-mode:lr-tb;text-anchor:start;fill:url(#linearGradient4471);fill-opacity:1"
             id="path4489" /><path
             d="m 374.51549,401.9656 -0.7576,8.18212 -0.90913,0 -0.7576,-7.87908 c -4.24258,-15.75816 -7.87908,-31.21327 -13.03079,-47.57752 -1.36368,-4.24258 -5.45475,-6.81843 -9.39428,-6.81843 -4.84867,0 -10.75798,2.72737 -10.60646,9.09124 l 0,96.9733 12.4247,0 -0.30304,-73.6391 -1.5152,-20.30378 1.06064,0 2.72737,15.60664 12.12167,40.45604 c 1.66672,3.6365 4.84866,5.75779 7.57603,5.75779 3.48498,0 6.66692,-2.27281 7.87908,-5.75779 3.93954,-12.12166 8.33365,-26.97069 12.42471,-39.69844 l 3.48497,-16.36424 1.96977,0 -3.48497,21.06139 -0.45457,70.76019 0.15153,2.1213 12.4247,0 0,-97.27634 c -0.30304,-6.36387 -5.45475,-9.39428 -10.00037,-9.39428 -3.6365,0 -7.57604,2.27281 -9.24277,6.96995 -2.72737,8.33364 -5.45475,17.42489 -8.0306,26.36461 -2.12129,7.12148 -3.78802,14.39448 -5.75779,21.36443 z"
             style="font-style:normal;font-variant:normal;font-weight:bold;font-stretch:normal;font-size:151.52076721px;line-height:125%;font-family:'Zag Bold';-inkscape-font-specification:'Zag Bold, Bold';text-align:start;letter-spacing:0.02559122px;writing-mode:lr-tb;text-anchor:start;fill:url(#linearGradient4471);fill-opacity:1"
             id="path4491" /><path
             d="m 423.29763,373.93426 0,8.33364 c 0,6.06083 3.93954,16.21272 13.03078,18.18249 -8.93972,1.51521 -13.78839,11.81862 -13.78839,18.1825 l 0,11.51557 c 0,16.97033 13.48535,25.15245 27.57678,25.15245 13.48535,0 27.42526,-8.18212 27.42526,-25.15245 l 0,-11.51557 c 0,-6.5154 -4.69714,-16.81881 -12.87926,-18.33402 8.33364,-2.87889 12.27318,-11.6671 12.27318,-18.03097 l 0,-8.33364 c 0,-16.21272 -13.63687,-24.0918 -26.66766,-24.0918 -13.78839,0 -26.97069,7.87908 -26.97069,24.0918 z m 41.51669,0 0,8.33364 c 0,6.66692 -4.84867,12.27318 -11.6671,12.42471 -2.12129,0.15152 -4.3941,0.15152 -6.21235,0 -6.96996,-0.15153 -11.6671,-5.60627 -11.6671,-12.42471 l 0,-8.33364 c 0,-7.72756 7.42452,-11.97014 15.00055,-11.97014 7.12148,0 14.546,4.24258 14.546,11.97014 z m -11.06102,32.57697 c 6.36387,0.15152 11.6671,5.45474 11.6671,12.12166 l 0,11.51557 c 0,8.33365 -7.72756,12.87927 -15.3036,12.87927 -7.87908,0 -15.45511,-4.54562 -15.45511,-12.87927 l 0,-11.51557 c 0,-6.66692 5.30322,-11.97014 11.81862,-12.12166 l 7.27299,0 z"
             style="font-style:normal;font-variant:normal;font-weight:bold;font-stretch:normal;font-size:151.52076721px;line-height:125%;font-family:'Zag Bold';-inkscape-font-specification:'Zag Bold, Bold';text-align:start;letter-spacing:0.02559122px;writing-mode:lr-tb;text-anchor:start;fill:url(#linearGradient4471);fill-opacity:1"
             id="path4493" /></g></g></g></g></svg>